<svg width="32" height="32" viewBox="0 0 32 32" fill="none" xmlns="http://www.w3.org/2000/svg">
<g clip-path="url(#clip0_27_2790)">
<mask id="mask0_27_2790" style="mask-type:luminance" maskUnits="userSpaceOnUse" x="0" y="0" width="32" height="32">
<path d="M32 0H0V32H32V0Z" fill="white"/>
</mask>
<g mask="url(#mask0_27_2790)">
<path d="M20.4619 11.3786C20.4619 11.3786 20.504 11.3702 20.5291 11.3702C20.5291 12.7267 18.8688 14.2619 18.0935 14.2619C15.5739 12.9497 15.6056 11.0135 11.4013 12.3834C7.19703 13.7533 7.21382 17.9798 7.21382 17.9798L5.65235 19.9656C1.53916 20.8758 2.04634 17.6574 2.04634 15.421C2.04634 13.6277 3.21479 12.1213 4.82457 11.5896C4.76993 11.2985 4.7363 11.0031 4.7363 10.6951C4.7363 8.08316 6.84204 5.96916 9.44375 5.96916C11.2637 5.96916 12.8231 7.01562 13.6048 8.53466C14.2226 7.79624 15.1347 7.31942 16.1687 7.31942C18.0264 7.31942 20.5291 8.83002 20.5291 10.6951C20.5291 10.9314 20.5081 11.1592 20.4619 11.3786Z" fill="#F3F4F7"/>
<path d="M25.3589 18.448C25.3838 18.448 25.4087 18.4379 25.4386 18.4379C28.0797 18.4379 30.2225 20.5891 30.2225 23.2406C30.2225 25.8921 28.0797 28.0433 25.4386 28.0433H23.9534H9.49232C6.85122 28.0433 4.70844 25.8921 4.70844 23.2406C4.70844 21.1144 6.09377 19.3285 8.00234 18.6982C7.93755 18.3529 7.89769 18.0027 7.89769 17.6375C7.89769 14.5408 10.3943 12.0345 13.4789 12.0345C15.6366 12.0345 17.4854 13.2751 18.4122 15.0761C19.1448 14.2007 20.2262 13.6353 21.452 13.6353C23.6546 13.6353 25.4386 15.4263 25.4386 17.6375C25.4386 17.9177 25.4137 18.1879 25.3589 18.448Z" fill="#F3F4F7" stroke="#D4D4DE" stroke-width="1.28571" stroke-linecap="round" stroke-linejoin="round"/>
<path d="M19.8983 10.8774C19.8983 8.91628 18.3161 7.32787 16.3626 7.32787C15.2754 7.32787 14.3163 7.82924 13.6666 8.6057C12.8447 7.00842 11.205 5.90807 9.29129 5.90807C6.55556 5.90807 4.34135 8.13096 4.34135 10.8774C4.34135 11.2013 4.3767 11.5119 4.43417 11.8181C2.74146 12.377 1.51282 13.961 1.51282 15.8467C1.51282 17.0352 1.9982 18.1103 2.78073 18.8831" stroke="#D4D4DE" stroke-width="1.28571" stroke-linecap="round" stroke-linejoin="round"/>
</g>
</g>
<defs>
<clipPath id="clip0_27_2790">
<rect width="32" height="32" fill="white"/>
</clipPath>
</defs>
</svg>
