<svg width="24" height="24" viewBox="0 0 24 24" fill="none" xmlns="http://www.w3.org/2000/svg">
<path d="M11.5843 7.59143C10.9924 7.59143 10.4137 7.76695 9.92154 8.09582C9.42937 8.42468 9.04577 8.8921 8.81925 9.43897C8.59272 9.98585 8.53345 10.5876 8.64894 11.1682C8.76442 11.7487 9.04946 12.282 9.46801 12.7006C9.88657 13.1191 10.4198 13.4042 11.0004 13.5196C11.581 13.6351 12.1827 13.5758 12.7296 13.3493C13.2765 13.1228 13.7439 12.7392 14.0728 12.247C14.4016 11.7549 14.5771 11.1762 14.5771 10.5843C14.5762 9.79081 14.2606 9.03009 13.6996 8.46902C13.1385 7.90795 12.3778 7.59234 11.5843 7.59143ZM11.5843 12.38C11.2291 12.38 10.8819 12.2747 10.5866 12.0774C10.2913 11.88 10.0612 11.5996 9.92526 11.2715C9.78935 10.9434 9.75378 10.5823 9.82307 10.234C9.89236 9.88562 10.0634 9.56566 10.3145 9.31452C10.5657 9.06339 10.8856 8.89236 11.234 8.82307C11.5823 8.75378 11.9434 8.78935 12.2715 8.92526C12.5996 9.06117 12.88 9.29134 13.0774 9.58663C13.2747 9.88195 13.38 10.2291 13.38 10.5843C13.3795 11.0604 13.1901 11.5168 12.8535 11.8535C12.5168 12.1901 12.0604 12.3795 11.5843 12.38ZM11.5843 4C9.83864 4.00198 8.16504 4.69632 6.93068 5.93068C5.69632 7.16504 5.00198 8.83864 5 10.5843C5 12.9334 6.08565 15.4236 8.13974 17.7858C9.06407 18.8532 10.1042 19.8144 11.241 20.6518C11.3416 20.7223 11.4615 20.76 11.5843 20.76C11.7071 20.76 11.8269 20.7223 11.9276 20.6518C13.0644 19.8144 14.1045 18.8532 15.0288 17.7858C17.0829 15.4236 18.1686 12.9335 18.1686 10.5843C18.1665 8.83864 17.4723 7.16504 16.2379 5.93068C15.0036 4.69632 13.3299 4.00198 11.5843 4ZM11.5843 19.4117C10.3473 18.4414 6.19714 14.8663 6.19714 10.5843C6.19714 9.15553 6.76472 7.78528 7.775 6.775C8.78528 5.76472 10.1555 5.19714 11.5843 5.19714C13.013 5.19714 14.3833 5.76472 15.3936 6.775C16.4039 7.78528 16.9714 9.15553 16.9714 10.5843C16.9714 14.8665 12.8211 18.4416 11.5843 19.4117Z" fill="#132842"/>
</svg>
