<svg width="32" height="32" viewBox="0 0 32 32" fill="none" xmlns="http://www.w3.org/2000/svg">
<g clip-path="url(#clip0_27_2765)">
<mask id="mask0_27_2765" style="mask-type:luminance" maskUnits="userSpaceOnUse" x="0" y="0" width="32" height="32">
<path d="M32 0H0V32H32V0Z" fill="white"/>
</mask>
<g mask="url(#mask0_27_2765)">
<path d="M14.5881 13.9202C12.6331 14.6234 12.2955 16.6423 11.2129 18.8074C10.4042 20.4248 8.61413 19.2721 7.7755 18.2971C6.93688 17.3222 6.42999 16.0536 6.42999 14.6667C6.42999 11.5904 8.92384 9.09653 12.0001 9.09653C13.3463 9.09653 14.5809 9.57408 15.5439 10.369C16.787 11.3952 16.5433 13.217 14.5881 13.9202Z" fill="#F7D056"/>
<path d="M26.1584 18.6925C26.1794 18.6925 26.2002 18.684 26.2251 18.684C28.4319 18.684 30.2224 20.4815 30.2224 22.697C30.2224 24.9126 28.4319 26.7099 26.2251 26.7099H24.9842H12.9008C10.694 26.7099 8.9035 24.9126 8.9035 22.697C8.9035 20.9205 10.061 19.4281 11.6558 18.9014C11.6016 18.613 11.5684 18.3203 11.5684 18.0152C11.5684 15.4277 13.6544 13.3334 16.2319 13.3334C18.0348 13.3334 19.5796 14.3701 20.3541 15.875C20.9662 15.1434 21.8698 14.6711 22.894 14.6711C24.7344 14.6711 26.2251 16.1675 26.2251 18.0152C26.2251 18.2494 26.2043 18.4751 26.1584 18.6925Z" fill="#F3F4F7" stroke="#D4D4DE" stroke-width="1.28571" stroke-linecap="round" stroke-linejoin="round"/>
<path d="M7.90833 18.0874C7.05945 17.072 6.61845 15.7771 6.67109 14.4546C6.72372 13.1321 7.26622 11.8765 8.19313 10.9317C9.12003 9.98692 10.3651 9.42054 11.6864 9.34266C13.0076 9.26478 14.3106 9.68095 15.3421 10.5103" stroke="#FEB800" stroke-width="1.28571" stroke-linecap="round"/>
<path d="M19.0103 8.04352L20.7235 6.42467" stroke="#FEB800" stroke-width="1.28571" stroke-linecap="round"/>
<path d="M3.64844 23.3102L5.36149 21.6913" stroke="#FEB800" stroke-width="1.28571" stroke-linecap="round"/>
<path d="M5.45677 8.04352L3.74371 6.42467" stroke="#FEB800" stroke-width="1.28571" stroke-linecap="round"/>
<path d="M12.269 5.80092V3.44396" stroke="#FEB800" stroke-width="1.28571" stroke-linecap="round"/>
<path d="M0.738586 14.8557H3.09555" stroke="#FEB800" stroke-width="1.28571" stroke-linecap="round"/>
</g>
</g>
<defs>
<clipPath id="clip0_27_2765">
<rect width="32" height="32" fill="white"/>
</clipPath>
</defs>
</svg>
