<svg width="32" height="32" viewBox="0 0 32 32" fill="none" xmlns="http://www.w3.org/2000/svg">
<g clip-path="url(#clip0_27_2679)">
<mask id="mask0_27_2679" style="mask-type:luminance" maskUnits="userSpaceOnUse" x="0" y="0" width="32" height="32">
<path d="M32 0H0V32H32V0Z" fill="white"/>
</mask>
<g mask="url(#mask0_27_2679)">
<path d="M14.725 11.18C12.6634 11.9216 12.3074 14.0504 11.1657 16.3335C10.313 18.039 8.42541 16.8235 7.54109 15.7954C6.65677 14.7673 6.12225 13.4297 6.12225 11.9672C6.12225 8.72321 8.752 6.09348 11.9959 6.09348C13.4155 6.09348 14.7174 6.59703 15.7328 7.43527C17.0437 8.5174 16.7867 10.4385 14.725 11.18Z" fill="#F7D056"/>
<path d="M26.3211 15.9501C26.3421 15.9501 26.3631 15.9416 26.3883 15.9416C28.6159 15.9416 30.4232 17.756 30.4232 19.9925C30.4232 22.2288 28.6159 24.0432 26.3883 24.0432H25.1356H12.9384C10.7108 24.0432 8.9035 22.2288 8.9035 19.9925C8.9035 18.1991 10.072 16.6927 11.6818 16.161C11.6271 15.8699 11.5934 15.5745 11.5934 15.2665C11.5934 12.6546 13.6992 10.5406 16.301 10.5406C18.1208 10.5406 19.6802 11.5871 20.462 13.1061C21.0798 12.3677 21.9919 11.8909 23.0259 11.8909C24.8836 11.8909 26.3883 13.4015 26.3883 15.2665C26.3883 15.5027 26.3672 15.7306 26.3211 15.9501Z" fill="#F3F4F7"/>
<path d="M12.9008 24.0433C10.694 24.0433 8.9035 22.2458 8.9035 20.0303C8.9035 18.2537 10.061 16.7614 11.6558 16.2348C11.6016 15.9463 11.5684 15.6537 11.5684 15.3485C11.5684 12.761 13.6544 10.6667 16.2319 10.6667C18.0348 10.6667 19.5796 11.7034 20.3541 13.2082C20.9662 12.4767 21.8698 12.0044 22.894 12.0044C24.7344 12.0044 26.2251 13.5009 26.2251 15.3485C26.2251 15.5826 26.2043 15.8084 26.1584 16.0257C26.1794 16.0257 26.2002 16.0174 26.2251 16.0174C28.4319 16.0174 30.2224 17.8149 30.2224 20.0303C30.2224 22.2458 28.4319 24.0433 26.2251 24.0433H24.9842" stroke="#D4D4DE" stroke-width="1.71429" stroke-linecap="round" stroke-linejoin="round"/>
<path d="M17.7419 28.6666L20.877 21.8738" stroke="#6A9CFF" stroke-width="1.71429" stroke-linecap="round"/>
<path d="M13.3334 30.7928L16.4686 24" stroke="#6A9CFF" stroke-width="1.71429" stroke-linecap="round"/>
<path d="M21.9219 28.4325L22.967 26.3424" stroke="#6A9CFF" stroke-width="1.71429" stroke-linecap="round"/>
<path d="M7.90833 15.4207C7.05945 14.4053 6.61845 13.1104 6.67109 11.788C6.72372 10.4655 7.26622 9.20978 8.19313 8.26501C9.12003 7.32023 10.3651 6.75385 11.6864 6.67597C13.0076 6.59808 14.3106 7.01426 15.3421 7.8436" stroke="#FEB800" stroke-width="1.71429" stroke-linecap="round"/>
<path d="M19.0103 5.37682L20.7235 3.75797" stroke="#FEB800" stroke-width="1.71429" stroke-linecap="round"/>
<path d="M3.64844 20.6434L5.36149 19.0246" stroke="#FEB800" stroke-width="1.71429" stroke-linecap="round"/>
<path d="M5.45677 5.37682L3.74371 3.75797" stroke="#FEB800" stroke-width="1.71429" stroke-linecap="round"/>
<path d="M12.269 3.13421V0.777252" stroke="#FEB800" stroke-width="1.71429" stroke-linecap="round"/>
<path d="M0.738586 12.1889H3.09555" stroke="#FEB800" stroke-width="1.71429" stroke-linecap="round"/>
</g>
</g>
<defs>
<clipPath id="clip0_27_2679">
<rect width="32" height="32" fill="white"/>
</clipPath>
</defs>
</svg>
