<svg width="32" height="32" viewBox="0 0 32 32" fill="none" xmlns="http://www.w3.org/2000/svg">
<g clip-path="url(#clip0_27_2651)">
<mask id="mask0_27_2651" style="mask-type:luminance" maskUnits="userSpaceOnUse" x="0" y="0" width="32" height="32">
<path d="M32 0H0V32H32V0Z" fill="white"/>
</mask>
<g mask="url(#mask0_27_2651)">
<path d="M25.0272 9.8232C25.0564 9.8232 25.0857 9.81143 25.1209 9.81143C28.2266 9.81143 30.7464 12.341 30.7464 15.459C30.7464 18.5769 28.2266 21.1065 25.1209 21.1065H23.3744H6.36931C3.26357 21.1065 0.743835 18.5769 0.743835 15.459C0.743835 12.9587 2.37288 10.8586 4.61721 10.1173C4.54103 9.71142 4.49415 9.29962 4.49415 8.87017C4.49415 5.2287 7.42994 2.28139 11.0572 2.28139C13.5945 2.28139 15.7685 3.74033 16.8585 5.85816C17.7199 4.82866 18.9914 4.1639 20.433 4.1639C23.0231 4.1639 25.1209 6.26996 25.1209 8.87017C25.1209 9.19961 25.0916 9.51729 25.0272 9.8232Z" fill="#F3F4F7"/>
<path d="M6.82431 20.7675C3.77655 20.7675 1.30383 18.2632 1.30383 15.1765C1.30383 12.7013 2.90247 10.6221 5.10491 9.88828C5.03015 9.48643 4.98415 9.07875 4.98415 8.65359C4.98415 5.04854 7.86516 2.13072 11.4247 2.13072C13.9147 2.13072 16.0481 3.57508 17.1177 5.67171C17.9631 4.65252 19.2108 3.9944 20.6255 3.9944C23.1672 3.9944 25.2259 6.07939 25.2259 8.65359C25.2259 8.97974 25.1971 9.29423 25.1339 9.59709C25.1626 9.59709 25.1914 9.58543 25.2259 9.58543C28.2737 9.58543 30.7464 12.0897 30.7464 15.1765C30.7464 18.2632 28.2737 20.7675 25.2259 20.7675H23.5121" stroke="#D4D4DE" stroke-width="1.71429" stroke-linecap="round" stroke-linejoin="round"/>
<path d="M13.5103 27.2091L17.8401 17.7451" stroke="#6A9CFF" stroke-width="1.71429" stroke-linecap="round"/>
<path d="M7.42188 30.1713L11.7517 20.7073" stroke="#6A9CFF" stroke-width="1.71429" stroke-linecap="round"/>
<path d="M19.2832 26.8825L20.7265 23.9705" stroke="#6A9CFF" stroke-width="1.71429" stroke-linecap="round"/>
</g>
</g>
<defs>
<clipPath id="clip0_27_2651">
<rect width="32" height="32" fill="white"/>
</clipPath>
</defs>
</svg>
