<svg width="144" height="144" viewBox="0 0 144 144" fill="none" xmlns="http://www.w3.org/2000/svg">
<path d="M63.1836 16.2856V10.2856M116.59 70.2856H122.524M3.8429 70.2856H9.77696M101.755 31.2856L110.656 22.2856M15.711 118.286L24.6122 109.286M15.711 22.2856L24.6122 31.2856" stroke="#6892B9" stroke-width="1.5" stroke-linecap="round"/>
<path d="M55.7234 115.635C55.7234 106.786 62.8178 99.613 71.5692 99.613H72.8564C72.8564 99.613 72.8564 76.1141 95.8788 76.1141C118.901 76.1141 118.901 99.613 118.901 99.613H121.259C130.01 99.613 137.105 106.786 137.105 115.635C137.105 124.484 130.01 131.657 121.259 131.657H71.5692C62.8178 131.657 55.7234 124.484 55.7234 115.635Z" stroke="#6892B9" stroke-width="1.5" stroke-linejoin="round"/>
<path d="M65.8963 57.6H59.7927" stroke="#6892B9" stroke-width="1.5" stroke-linecap="round"/>
<path d="M57.7583 76.1142C59.7928 82.2856 68.9482 81.2571 70.9827 76.1142" stroke="#6892B9" stroke-width="1.5" stroke-linecap="round"/>
<path d="M51.4624 99.4952C44.9658 96.9371 39.4973 92.2635 35.9205 86.2125C32.344 80.1614 30.8631 73.0779 31.7121 66.0811" stroke="#6892B9" stroke-width="1.5"/>
<path d="M36.769 52.317C39.6922 47.8958 43.6679 44.2889 48.3307 41.8281C52.9933 39.3673 58.1931 38.1315 63.4516 38.2344C68.7103 38.3374 73.8589 39.7757 78.4238 42.4173C82.9888 45.0587 86.8234 48.8184 89.5751 53.3506" stroke="#6892B9" stroke-width="1.5"/>
<path d="M55.0456 52.6285H31.9876C30.0212 52.6285 28.4271 54.2403 28.4271 56.2285V63.0856C28.4271 65.0738 30.0212 66.6856 31.9876 66.6856H55.0456C57.012 66.6856 58.606 65.0738 58.606 63.0856V56.2285C58.606 54.2403 57.012 52.6285 55.0456 52.6285Z" stroke="#6892B9" stroke-width="1.5"/>
<path d="M93.7016 52.6285H70.6436C68.6772 52.6285 67.0831 54.2403 67.0831 56.2285V63.0856C67.0831 65.0738 68.6772 66.6856 70.6436 66.6856H93.7016C95.668 66.6856 97.262 65.0738 97.262 63.0856V56.2285C97.262 54.2403 95.668 52.6285 93.7016 52.6285Z" stroke="#6892B9" stroke-width="1.5"/>
</svg>
