<svg width="32" height="32" viewBox="0 0 32 32" fill="none" xmlns="http://www.w3.org/2000/svg">
<path d="M16 2.8288C16.1087 2.82879 16.2163 2.85039 16.3165 2.89236C16.4167 2.93433 16.5076 2.99582 16.5838 3.07325C16.6601 3.15068 16.7202 3.2425 16.7606 3.34338C16.801 3.44425 16.8209 3.55215 16.8192 3.6608V5.2992C16.8192 5.40678 16.798 5.51331 16.7569 5.6127C16.7157 5.71209 16.6553 5.80239 16.5793 5.87846C16.5032 5.95453 16.4129 6.01487 16.3135 6.05604C16.2141 6.09721 16.1076 6.1184 16 6.1184C15.8924 6.1184 15.7859 6.09721 15.6865 6.05604C15.5871 6.01487 15.4968 5.95453 15.4208 5.87846C15.3447 5.80239 15.2843 5.71209 15.2432 5.6127C15.202 5.51331 15.1808 5.40678 15.1808 5.2992V3.6608C15.1774 3.55109 15.196 3.4418 15.2357 3.33944C15.2753 3.23708 15.3351 3.14372 15.4115 3.06492C15.4879 2.98612 15.5794 2.92348 15.6805 2.88072C15.7816 2.83796 15.8902 2.81595 16 2.816V2.8288ZM22.5792 16.0128C22.5792 16.8776 22.4089 17.734 22.0779 18.533C21.747 19.332 21.2619 20.058 20.6503 20.6695C20.0388 21.2811 19.3128 21.7661 18.5138 22.0971C17.7148 22.4281 16.8584 22.5984 15.9936 22.5984C15.1288 22.5984 14.2724 22.4281 13.4734 22.0971C12.6744 21.7661 11.9484 21.2811 11.3369 20.6695C10.7254 20.058 10.2403 19.332 9.90931 18.533C9.57836 17.734 9.40801 16.8776 9.40801 16.0128C9.40801 14.2645 10.1025 12.5878 11.3388 11.3516C12.575 10.1153 14.2517 9.4208 16 9.4208C17.7483 9.4208 19.425 10.1153 20.6613 11.3516C21.8975 12.5878 22.592 14.2645 22.592 16.0128H22.5792ZM28.3392 16.8192C28.5565 16.8192 28.7648 16.7329 28.9185 16.5793C29.0721 16.4256 29.1584 16.2173 29.1584 16C29.1584 15.7827 29.0721 15.5744 28.9185 15.4207C28.7648 15.2671 28.5565 15.1808 28.3392 15.1808H26.7008C26.4835 15.1808 26.2752 15.2671 26.1216 15.4207C25.9679 15.5744 25.8816 15.7827 25.8816 16C25.8816 16.2173 25.9679 16.4256 26.1216 16.5793C26.2752 16.7329 26.4835 16.8192 26.7008 16.8192H28.3392ZM16 25.8816C16.2173 25.8816 16.4256 25.9679 16.5793 26.1215C16.7329 26.2752 16.8192 26.4835 16.8192 26.7008V28.3392C16.8192 28.4468 16.798 28.5533 16.7569 28.6527C16.7157 28.7521 16.6553 28.8424 16.5793 28.9185C16.5032 28.9945 16.4129 29.0549 16.3135 29.096C16.2141 29.1372 16.1076 29.1584 16 29.1584C15.8924 29.1584 15.7859 29.1372 15.6865 29.096C15.5871 29.0549 15.4968 28.9945 15.4208 28.9185C15.3447 28.8424 15.2843 28.7521 15.2432 28.6527C15.202 28.5533 15.1808 28.4468 15.1808 28.3392V26.7008C15.1808 26.4835 15.2671 26.2752 15.4208 26.1215C15.5744 25.9679 15.7827 25.8816 16 25.8816ZM5.29921 16.8192C5.40679 16.8192 5.51332 16.798 5.61271 16.7568C5.7121 16.7157 5.80241 16.6553 5.87848 16.5793C5.95455 16.5032 6.01489 16.4129 6.05606 16.3135C6.09722 16.2141 6.11841 16.1076 6.11841 16C6.11841 15.8924 6.09722 15.7859 6.05606 15.6865C6.01489 15.5871 5.95455 15.4968 5.87848 15.4207C5.80241 15.3447 5.7121 15.2843 5.61271 15.2432C5.51332 15.202 5.40679 15.1808 5.29921 15.1808H3.66081C3.55323 15.1808 3.44671 15.202 3.34732 15.2432C3.24793 15.2843 3.15762 15.3447 3.08155 15.4207C3.00548 15.4968 2.94514 15.5871 2.90397 15.6865C2.8628 15.7859 2.84161 15.8924 2.84161 16C2.84161 16.1076 2.8628 16.2141 2.90397 16.3135C2.94514 16.4129 3.00548 16.5032 3.08155 16.5793C3.15762 16.6553 3.24793 16.7157 3.34732 16.7568C3.44671 16.798 3.55323 16.8192 3.66081 16.8192H5.29921ZM6.36161 6.3616C6.4378 6.28459 6.5285 6.22345 6.62846 6.18172C6.72843 6.13999 6.83569 6.11851 6.94401 6.11851C7.05234 6.11851 7.15959 6.13999 7.25956 6.18172C7.35953 6.22345 7.45023 6.28459 7.52641 6.3616L9.19041 8.0128C9.34318 8.16896 9.42765 8.37941 9.42525 8.59785C9.42285 8.8163 9.33377 9.02484 9.17761 9.1776C9.02145 9.33037 8.81101 9.41484 8.59256 9.41244C8.37412 9.41004 8.16558 9.32096 8.01281 9.1648L6.36161 7.5392C6.28265 7.46281 6.21985 7.37132 6.17696 7.27017C6.13408 7.16902 6.11198 7.06027 6.11198 6.9504C6.11198 6.84053 6.13408 6.73179 6.17696 6.63063C6.21985 6.52948 6.28265 6.43799 6.36161 6.3616ZM7.52641 25.6256C7.36906 25.7526 7.17028 25.817 6.96833 25.8063C6.76638 25.7955 6.57554 25.7105 6.43254 25.5675C6.28954 25.4245 6.20449 25.2336 6.19375 25.0317C6.18302 24.8297 6.24737 24.631 6.37441 24.4736L8.01281 22.8224C8.17016 22.6954 8.36895 22.631 8.5709 22.6417C8.77284 22.6525 8.96369 22.7375 9.10669 22.8805C9.24969 23.0235 9.33474 23.2144 9.34547 23.4163C9.3562 23.6183 9.29186 23.817 9.16481 23.9744L7.52641 25.6384V25.6256ZM25.6256 6.3616C25.4723 6.20996 25.2653 6.12491 25.0496 6.12491C24.8339 6.12491 24.627 6.20996 24.4736 6.3616L22.8224 8.0128C22.6954 8.17015 22.631 8.36893 22.6418 8.57088C22.6525 8.77283 22.7375 8.96368 22.8805 9.10668C23.0235 9.24968 23.2144 9.33473 23.4163 9.34546C23.6183 9.35619 23.8171 9.29184 23.9744 9.1648L25.6384 7.5264C25.7901 7.37304 25.8751 7.16607 25.8751 6.9504C25.8751 6.73473 25.7901 6.52776 25.6384 6.3744L25.6256 6.3616ZM24.4736 25.6384C24.5497 25.7157 24.6404 25.7772 24.7405 25.8192C24.8406 25.8612 24.948 25.8829 25.0565 25.883C25.165 25.8831 25.2724 25.8617 25.3726 25.82C25.4728 25.7782 25.5636 25.717 25.6399 25.6398C25.7163 25.5627 25.7765 25.4712 25.8171 25.3705C25.8577 25.2699 25.878 25.1622 25.8766 25.0537C25.8753 24.9452 25.8524 24.8381 25.8093 24.7385C25.7662 24.6389 25.7038 24.5489 25.6256 24.4736L23.9872 22.8224C23.8574 22.6705 23.6766 22.5712 23.4787 22.5433C23.2809 22.5154 23.0797 22.5608 22.9129 22.6709C22.7462 22.781 22.6254 22.9483 22.5734 23.1412C22.5214 23.3341 22.5417 23.5394 22.6304 23.7184C22.6794 23.8178 22.7443 23.9086 22.8224 23.9872L24.4736 25.6512V25.6384Z" fill="#FEB800"/>
</svg>
